<?xml version="1.0" encoding="UTF-8"?>
<svg id="Capa_1" data-name="Capa 1" xmlns="http://www.w3.org/2000/svg" viewBox="0 0 207.27 36.68">
  <defs>
    <style>
      .cls-1 {
        fill: #5076ff;
      }

      .cls-1, .cls-2, .cls-3 {
        stroke-width: 0px;
      }

      .cls-2 {
        fill: #000;
      }

      .cls-3 {
        fill: #7209b0;
      }
    </style>
  </defs>
  <path class="cls-1" d="M8.55,3.38c.15-.1.27-.19.4-.27,2.3-1.46,4.81-2.24,7.5-2.59,6.95-.89,13.94,3.49,16.29,9.95,1.47,4.05,1.41,8.03-.86,11.8-2.07,3.44-5.19,5.29-9.16,5.7-2.38.25-4.61-.19-6.59-1.59-2.49-1.76-3.62-4.83-2.73-7.58.52-1.62,1.6-2.73,3.34-3.06.29-.06.62-.03.91.02.17.03.42.19.43.31.01.16-.13.4-.28.5-.96.66-1.54,1.54-1.7,2.69-.34,2.48,1.18,4.42,3.69,4.69,4.63.5,8.45-2.88,8.52-7.54.08-5.32-3.75-9.93-9.04-10.64-5.56-.75-10.16,1.16-13.76,5.45-1.95,2.33-3.06,5.05-3.58,8.03-.05.3-.13.56-.5.55-.38,0-.43-.28-.47-.58-.56-4.12.52-7.83,2.86-11.21,0,0,1.55-2.64,4.73-4.63"/>
  <path class="cls-3" d="M32.43,30.86c-2.1,2.14-3.29,2.76-4.22,3.28-.61.34-1.18.59-1.76.81-5.91,2.24-11.45,1.73-16.47-2.31-2.94-2.37-4.66-5.48-5.39-9.2-.95-4.78,1.05-10.04,5.1-12.72,3.26-2.16,6.84-2.79,10.57-1.34,2.52.97,4.17,2.82,4.62,5.55.35,2.13-.12,4.02-1.96,5.37-.72.53-1.54.8-2.45.61-.18-.04-.4-.19-.46-.34-.04-.11.13-.36.27-.46,1.45-1.04,2.05-2.6,1.65-4.36-.39-1.68-1.72-2.8-3.57-3.03-4.34-.52-8.03,2.41-8.51,6.75-.53,4.79,2.65,9.64,7.29,11.04,4.09,1.23,7.95.53,11.54-1.63,4.02-2.41,6.28-6.1,7.33-10.6.07-.29.12-.58.17-.87.05-.3.13-.56.51-.54.35.02.42.25.46.55.46,3.15-.1,6.14-1.5,8.98-.82,1.66-2.09,3.33-3.2,4.46"/>
  <polygon class="cls-2" points="64.61 19.74 52.82 19.74 52.82 27.74 65.78 27.74 65.33 30.75 49.35 30.75 49.35 6.85 65.17 6.85 65.17 9.86 52.82 9.86 52.82 16.74 64.61 16.74 64.61 19.74"/>
  <path class="cls-2" d="M69.25,17.65c0-1.51,0-3.07-.03-4.41h3.28c.08.5.13,2.22.13,2.75.68-1.43,2.1-3.16,5.43-3.16s5.84,2.08,5.84,6.69v11.24h-3.38v-10.82c0-2.51-.96-4.23-3.53-4.23-3.06,0-4.36,2.25-4.36,5.69v9.37h-3.38v-13.1Z"/>
  <path class="cls-2" d="M104.17,21.96c0,5.09-2.95,9.2-8.34,9.2-5.1,0-8.16-3.88-8.16-9.14s3.03-9.2,8.36-9.2c4.92,0,8.13,3.64,8.13,9.14M91.14,21.99c0,3.75,1.83,6.4,4.82,6.4s4.75-2.53,4.75-6.38-1.7-6.41-4.82-6.41-4.75,2.46-4.75,6.4"/>
  <path class="cls-2" d="M109.46,13.23c2.22,6.92,3.88,12.24,4.38,14.41h.03c.44-2.13,2.27-7.38,4.69-14.41h3.42l-6.39,17.51h-3.67l-6.08-17.51h3.62Z"/>
  <path class="cls-2" d="M137.74,26.79c0,1.61.14,3.47.24,3.96h-3.23c-.14-.38-.24-1.23-.28-2.18-.62,1.13-1.97,2.59-5.31,2.59-4.15,0-5.91-2.7-5.91-5.38,0-3.92,3.1-5.72,8.29-5.72h2.89v-1.41c0-1.48-.48-3.24-3.56-3.24-2.76,0-3.24,1.34-3.54,2.69h-3.25c.24-2.55,1.81-5.29,6.9-5.27,4.36.02,6.76,1.78,6.76,5.79v8.17ZM134.45,22.32h-2.67c-3.38,0-5.1.95-5.1,3.27,0,1.71,1.16,2.99,3.24,2.99,4,0,4.53-2.7,4.53-5.72v-.54Z"/>
  <path class="cls-2" d="M140.36,13.23h2.96v-5.09h3.38v5.09h3.78v2.7h-3.78v9.94c0,1.63.41,2.43,1.97,2.43.39,0,.99-.02,1.45-.13v2.48c-.79.29-1.88.32-2.74.32-2.86,0-4.05-1.49-4.05-4.43v-10.63h-2.96v-2.7Z"/>
  <path class="cls-2" d="M155.69,22.63c.02,3.3,1.68,5.75,4.54,5.75,2.62,0,3.46-1.31,4-2.55h3.4c-.68,2.22-2.56,5.32-7.5,5.32-5.56,0-7.85-4.44-7.85-8.97,0-5.26,2.66-9.37,8.04-9.37,5.72,0,7.61,4.5,7.61,8.36,0,.54,0,.98-.05,1.46h-12.19ZM164.51,20.34c-.03-2.72-1.36-4.92-4.23-4.92s-4.21,2.04-4.49,4.92h8.72Z"/>
  <path class="cls-2" d="M184.22,23.89l-2.44,6.86h-3.52l8.43-23.89h4.39l8.8,23.89h-3.76l-2.52-6.86h-9.38ZM192.73,20.89c-2.17-6.05-3.39-9.36-3.92-11.24h-.03c-.58,2.09-1.95,6.07-3.69,11.24h7.64Z"/>
  <path class="cls-2" d="M203.09,5.52h3.38v3.88h-3.38v-3.88ZM203.09,13.23h3.38v17.51h-3.38V13.23Z"/>
</svg>